<svg xmlns="http://www.w3.org/2000/svg" width="100" height="27" viewBox="0 0 100 27"><g><g><g><path fill="#fff" d="M.093 3.536c0-1.282.688-1.924 2.065-1.924h10.044c1.131 0 1.697.51 1.697 1.528 0 .358-.057.684-.17.976a4.414 4.414 0 0 1-.255.579H3.516v5.15h7.865c1.131 0 1.698.51 1.698 1.527 0 .36-.057.684-.17.976a4.44 4.44 0 0 1-.255.58H3.516v8.091H.093z"/></g><g><path fill="#fff" d="M24.593 18.812c-.17.039-.51.09-1.018.156-.51.066-1.198.1-2.066.1-.773 0-1.419-.053-1.938-.156-.519-.104-.93-.255-1.23-.452-.302-.199-.514-.44-.637-.722a2.323 2.323 0 0 1-.184-.934c0-.83.293-1.437.878-1.825.583-.386 1.518-.58 2.8-.58 1.037 0 1.815.038 2.334.114.519.075.872.132 1.061.17zm3.197-6.364c0-1.094-.184-2.028-.551-2.802a4.761 4.761 0 0 0-1.543-1.867c-.66-.47-1.447-.816-2.362-1.032-.915-.216-1.928-.326-3.04-.326-.925 0-1.69.057-2.293.17-.603.113-1.084.269-1.443.467-.358.198-.608.424-.75.679a1.582 1.582 0 0 0-.211.778c0 .377.099.698.297.962.198.264.353.443.467.537.207-.17.636-.377 1.287-.622.65-.246 1.513-.368 2.588-.368.64 0 1.226.048 1.754.141.529.095.98.265 1.358.51.377.245.674.584.891 1.018.217.434.326.98.326 1.641-.321-.037-.802-.08-1.443-.127a27.554 27.554 0 0 0-2.037-.07c-1.245 0-2.301.098-3.168.296-.869.198-1.57.495-2.108.891a3.373 3.373 0 0 0-1.16 1.471c-.236.585-.354 1.264-.354 2.037 0 .586.1 1.155.297 1.712.199.556.566 1.047 1.104 1.471.537.425 1.273.764 2.206 1.018.934.255 2.136.382 3.607.382.736 0 1.443-.018 2.122-.057a58.627 58.627 0 0 0 3.268-.268c.405-.047.702-.09.89-.127z"/></g><g><path fill="#fff" d="M36.574 18.162c-.538-.226-1-.538-1.387-.934a4.18 4.18 0 0 1-.905-1.443 5.174 5.174 0 0 1-.325-1.866c0-.642.108-1.246.325-1.811a4.616 4.616 0 0 1 .891-1.471c.377-.415.835-.74 1.372-.977a4.43 4.43 0 0 1 1.797-.353c.641 0 1.23.118 1.768.353.538.236 1 .557 1.386.962.387.406.684.891.891 1.457a5.31 5.31 0 0 1 .312 1.84c0 .66-.104 1.268-.312 1.824a4.168 4.168 0 0 1-.89 1.443 4.237 4.237 0 0 1-1.387.962 4.354 4.354 0 0 1-1.768.354 4.5 4.5 0 0 1-1.768-.34zm-5.814-4.923c0 1.377.188 2.575.566 3.593.377 1.018.905 1.868 1.584 2.546a6.526 6.526 0 0 0 2.419 1.528c.933.34 1.957.51 3.07.51 1.112 0 2.135-.19 3.069-.566a7.393 7.393 0 0 0 2.418-1.557 6.9 6.9 0 0 0 1.585-2.376 7.859 7.859 0 0 0 .566-2.999c0-1.093-.184-2.097-.552-3.013a7.245 7.245 0 0 0-1.527-2.376 6.86 6.86 0 0 0-2.292-1.556c-.877-.368-1.835-.552-2.872-.552-1.075 0-2.027.212-2.857.637-.83.424-1.48.938-1.952 1.541V.48a8.83 8.83 0 0 0-.566-.184 3.247 3.247 0 0 0-.933-.127c-.547 0-.972.123-1.273.368-.303.245-.453.622-.453 1.131z"/></g></g><g><g><path fill="#fff" d="M61.881 19.549a15.68 15.68 0 0 1-1.216.24c-.604.103-1.519.155-2.744.155-1.868 0-3.202-.24-4.004-.722-.802-.48-1.202-1.23-1.202-2.248 0-.585.109-1.075.326-1.472.216-.396.527-.711.933-.947s.891-.401 1.457-.495a11.579 11.579 0 0 1 1.895-.142c1.415 0 2.485.056 3.211.17.726.113 1.175.189 1.344.226zM56.676 8.203c.679 0 1.33.062 1.952.185a4.391 4.391 0 0 1 1.655.679c.48.33.867.777 1.16 1.343.292.566.438 1.283.438 2.15v.17c-.189-.018-.448-.047-.777-.085-.33-.038-.699-.07-1.104-.099a178.18 178.18 0 0 0-1.288-.085 20.947 20.947 0 0 0-1.3-.042c-1.283 0-2.349.113-3.198.339-.849.227-1.523.538-2.022.933a3.26 3.26 0 0 0-1.062 1.43 5.273 5.273 0 0 0-.31 1.853c0 .528.084 1.057.255 1.584.169.529.509 1.004 1.018 1.428.509.425 1.22.769 2.136 1.033.914.265 2.126.396 3.635.396 1.301 0 2.466-.052 3.493-.155a36.71 36.71 0 0 0 2.363-.297v-8.46c0-2.054-.623-3.545-1.867-4.47-1.245-.923-2.99-1.385-5.234-1.385-1.094 0-1.962.095-2.603.283-.64.188-1.056.358-1.244.508a1.685 1.685 0 0 0-.382.397.926.926 0 0 0-.156.538c0 .207.052.395.156.566.103.169.221.301.353.395.245-.226.698-.471 1.358-.736.66-.264 1.518-.396 2.575-.396z"/></g><g><path fill="#fff" d="M79.733 14.032c0 .83-.128 1.593-.382 2.291a5.492 5.492 0 0 1-1.104 1.839 5.033 5.033 0 0 1-1.726 1.23c-.67.294-1.428.44-2.277.44-.811 0-1.551-.156-2.22-.468a5.457 5.457 0 0 1-1.727-1.244 5.494 5.494 0 0 1-1.117-1.84 6.371 6.371 0 0 1-.396-2.248c0-.83.132-1.599.396-2.306A5.458 5.458 0 0 1 70.283 9.9 5.069 5.069 0 0 1 71.995 8.7c.67-.293 1.419-.439 2.25-.439.848 0 1.607.151 2.276.453.67.302 1.245.712 1.726 1.231a5.322 5.322 0 0 1 1.104 1.838c.254.708.382 1.457.382 2.25zM66.888 26.677h1.868V18.7c.528.81 1.273 1.466 2.235 1.965.961.5 2.046.75 3.253.75 1.094 0 2.103-.189 3.027-.565a7.037 7.037 0 0 0 2.377-1.57 7.208 7.208 0 0 0 1.541-2.348 7.567 7.567 0 0 0 .552-2.9 7.49 7.49 0 0 0-.552-2.872 7.223 7.223 0 0 0-1.541-2.349 7.217 7.217 0 0 0-2.377-1.583c-.924-.387-1.933-.58-3.027-.58-.943 0-1.82.137-2.631.41a6.775 6.775 0 0 0-2.15 1.174 6.516 6.516 0 0 0-1.556 1.867c-.416.736-.707 1.566-.877 2.49-.038.264-.07.57-.1.92-.027.348-.042.749-.042 1.202z"/></g><g><path fill="#fff" d="M97.188 14.032c0 .83-.128 1.593-.382 2.291a5.492 5.492 0 0 1-1.104 1.839 5.031 5.031 0 0 1-1.725 1.23c-.67.294-1.429.44-2.278.44-.81 0-1.551-.156-2.22-.468a5.451 5.451 0 0 1-1.726-1.244 5.503 5.503 0 0 1-1.118-1.84 6.372 6.372 0 0 1-.396-2.248c0-.83.132-1.599.396-2.306A5.466 5.466 0 0 1 87.738 9.9 5.074 5.074 0 0 1 89.45 8.7c.67-.293 1.419-.439 2.25-.439.848 0 1.607.151 2.277.453.67.302 1.244.712 1.725 1.231a5.322 5.322 0 0 1 1.104 1.838c.254.708.382 1.457.382 2.25zM84.344 26.677h1.867V18.7c.528.81 1.273 1.466 2.235 1.965.962.5 2.046.75 3.253.75 1.094 0 2.103-.189 3.027-.565a7.031 7.031 0 0 0 2.377-1.57 7.2 7.2 0 0 0 1.542-2.348 7.575 7.575 0 0 0 .55-2.9 7.498 7.498 0 0 0-.55-2.872 7.214 7.214 0 0 0-1.542-2.349 7.21 7.21 0 0 0-2.377-1.583c-.924-.387-1.933-.58-3.027-.58a8.2 8.2 0 0 0-2.63.41 6.778 6.778 0 0 0-2.15 1.174 6.517 6.517 0 0 0-1.557 1.867 7.954 7.954 0 0 0-.877 2.49 15.06 15.06 0 0 0-.142 2.122z"/></g></g></g></svg>